<svg width="100" height="85" viewBox="0 0 100 85" fill="none" xmlns="http://www.w3.org/2000/svg">
<path d="M69.2317 47.1371C69.2317 56.9068 60.8761 64.9551 50.4065 64.9551C39.9369 64.9551 31.5813 56.9068 31.5813 47.1371C31.5813 37.3674 39.9369 29.3191 50.4065 29.3191C60.8761 29.3191 69.2317 37.3674 69.2317 47.1371Z" stroke="#CA8A03" stroke-width="3"/>
<path d="M61.1016 47.1367C61.1016 52.6388 56.386 57.2275 50.4065 57.2275C44.427 57.2275 39.7114 52.6388 39.7114 47.1367C39.7114 41.6346 44.427 37.0459 50.4065 37.0459C56.386 37.0459 61.1016 41.6346 61.1016 47.1367Z" stroke="#CA8A03" stroke-width="3"/>
<path d="M14 11.0007H86C92.3513 11.0007 97.5 16.1495 97.5 22.5007V71C97.5 77.3513 92.3513 82.5 86 82.5H14C7.64873 82.5 2.5 77.3513 2.5 71V22.5007C2.5 16.1495 7.64873 11.0007 14 11.0007Z" stroke="#CA8A04" stroke-width="5"/>
<path d="M71.6057 2.5H87.7439V9.86352H71.6057V2.5Z" fill="#CA8A04" stroke="#CA8A04" stroke-width="5"/>
<path d="M73.3577 16.4553H85.1789V25.2734H73.3577V16.4553Z" stroke="#CA8A04" stroke-width="2"/>
<rect x="13.8212" y="10.0452" width="2.43902" height="74.1811" rx="1.21951" fill="#CA8A04"/>
</svg>
